<svg xmlns="http://www.w3.org/2000/svg" width="1560" height="730" viewBox="0 0 1560 730"><rect width="1560" height="730" fill="#ffffff"/><text x="40" y="46.0" font-size="30" fill="#1e1e1e" font-family="'Segoe Print','Comic Sans MS','Chalkboard SE','Excalifont',cursive" font-weight="700">VLAN tagging — where traffic can flow</text><text x="40" y="82.0" font-size="15" fill="#868e96" font-family="'Segoe Print','Comic Sans MS','Chalkboard SE','Excalifont',cursive">the 802.1Q tag exists only between switch P5 and vmbr0 — endpoints never see it</text><path d="M 708.6134779132146 107.91004732297974 L 906.0101290008241 108.78212724785482 Q 915 110 916.0404733423217 118.77747774466081 L 916.7255900979013 665.1825308635695 Q 915 675 906.6564560066151 672.9311077655275 L 706.7620070891359 675.0235632676548 Q 700 675 697.916758266609 665.6748856630212 L 700.6594915262299 118.19774251465415 Q 700 110 706.769938736979 110.39276900905399" fill="none" stroke="#868e96" stroke-width="2" stroke-linecap="round" stroke-dasharray="9,7"/><path d="M 709.3614940093825 107.82859454258347 L 908.3456047080643 110.8718133379482 Q 915 110 914.2971022726791 116.48410979917183 L 917.0117375177099 666.2810159984956 Q 915 675 905.2080817108726 673.2255520580673 L 709.5289752119288 675.4563945380144 Q 700 675 701.3513644024073 668.0108198614528 L 700.1594036024006 120.08170936150923 Q 700 110 707.4655512597168 110.2289787776022" fill="none" stroke="#868e96" stroke-width="2" stroke-linecap="round" stroke-dasharray="9,7"/><text x="742" y="136.0" font-size="17" fill="#1e1e1e" font-family="'Segoe Print','Comic Sans MS','Chalkboard SE','Excalifont',cursive" font-weight="700">ONE CABLE</text><text x="714" y="158.0" font-size="12.5" fill="#868e96" font-family="'Segoe Print','Comic Sans MS','Chalkboard SE','Excalifont',cursive">the LAN1 run - P5 to eno1</text><text x="40" y="142.0" font-size="19" fill="#7048e8" font-family="'Segoe Print','Comic Sans MS','Chalkboard SE','Excalifont',cursive" font-weight="700">VLAN 30 - CCTV (camera)</text><path d="M 49.44938052271318 160.52148691040267 L 205.59151036136743 160.34034943912974 Q 212 160 212.90011607934565 166.0016272880849 L 210.8027524128668 253.07330703984928 Q 212 262 202.15108469846396 260.82427989998854 L 46.24440628940281 261.0230838536844 Q 40 262 40.59701155476336 253.40526158746837 L 39.42879625531428 166.72183093539454 Q 40 160 46.9747024170161 161.92128018593496" fill="#d0bfff" fill-opacity="0.55" stroke="#7048e8" stroke-width="2" stroke-linecap="round"/><path d="M 48.65135569508501 160.48017642493474 L 202.5530100520716 161.00815791098154 Q 212 160 210.5189709725525 167.46960394373366 L 214.15390274280102 254.61599894335802 Q 212 262 204.25057887260846 262.81230270435543 L 49.508548448835164 263.21439961080347 Q 40 262 38.80781151664206 251.94124107317776 L 39.18799341145996 166.9780598542931 Q 40 160 46.72832451177984 161.94880274307425" fill="none" stroke="#7048e8" stroke-width="2" stroke-linecap="round"/><text x="56" y="188.0" font-size="14.5" fill="#1e1e1e" font-family="'Segoe Print','Comic Sans MS','Chalkboard SE','Excalifont',cursive">camera</text><text x="56" y="207.575" font-size="14.5" fill="#1e1e1e" font-family="'Segoe Print','Comic Sans MS','Chalkboard SE','Excalifont',cursive">10.0.30.70</text><text x="56" y="227.15" font-size="14.5" fill="#1e1e1e" font-family="'Segoe Print','Comic Sans MS','Chalkboard SE','Excalifont',cursive">sends untagged</text><path d="M 216.75273525294534 210.62935576159697 L 256.31087733058973 210.79126380212134" fill="none" stroke="#7048e8" stroke-width="2.2" stroke-linecap="round"/><path d="M 256.8290951794811 210.9177037051748 L 263.2417591133166 205.85374266899478" stroke="#7048e8" stroke-width="2.2" stroke-linecap="round" fill="none"/><path d="M 256.1227362683263 210.52548321704586 L 263.8811707607676 216.43515811359813" stroke="#7048e8" stroke-width="2.2" stroke-linecap="round" fill="none"/><path d="M 269.55736222261777 158.76501134029203 L 446.1891654685785 160.04191569217645 Q 452 160 450.2000014135647 166.00731205186884 L 450.2824561735429 254.56076258349358 Q 452 262 445.285149203197 261.6575038539186 L 268.0795219070686 261.47912486062876 Q 262 262 264.1829340730564 254.1281031184362 L 264.0727448614999 169.5874306898318 Q 262 160 267.8505164965484 160.97117600518484" fill="none" stroke="#7048e8" stroke-width="2" stroke-linecap="round"/><path d="M 270.79952562371693 160.16266945379869 L 442.9740308357912 160.62023191375116 Q 452 160 450.29082956382183 167.71296710294405 L 451.7963843078485 255.99679008109274 Q 452 262 445.6537529376641 260.9589118233048 L 270.0025788974213 260.5860682743326 Q 262 262 263.8155624931172 255.63028170728177 L 261.11315708237396 168.6113777774104 Q 262 160 270.479468930328 158.4724927816184" fill="none" stroke="#7048e8" stroke-width="2" stroke-linecap="round"/><text x="276" y="186.0" font-size="14.5" fill="#1e1e1e" font-family="'Segoe Print','Comic Sans MS','Chalkboard SE','Excalifont',cursive">P4 ingress</text><text x="276" y="205.575" font-size="14.5" fill="#1e1e1e" font-family="'Segoe Print','Comic Sans MS','Chalkboard SE','Excalifont',cursive">PVID 30 -> VLAN 30</text><text x="276" y="246.0" font-size="13.5" fill="#e03131" font-family="'Segoe Print','Comic Sans MS','Chalkboard SE','Excalifont',cursive" font-weight="700">x not in VLAN 1</text><path d="M 456.5250216001503 211.07875806023924 L 496.55725295726114 211.06070734439035" fill="none" stroke="#7048e8" stroke-width="2.2" stroke-linecap="round"/><path d="M 495.0011437922559 210.64831211400934 L 502.75095226509217 207.21868488613603" stroke="#7048e8" stroke-width="2.2" stroke-linecap="round" fill="none"/><path d="M 496.75744375564636 211.66333105872235 L 503.32702703112585 214.75536267938156" stroke="#7048e8" stroke-width="2.2" stroke-linecap="round" fill="none"/><path d="M 511.66324223649775 161.96657755931116 L 660.1768751890986 159.9383580385931 Q 670 160 668.1045350812609 169.1466495271318 L 671.1696714889507 252.36492244379895 Q 670 262 661.8912424636344 262.2191358113777 L 508.9662491673363 263.63870538077515 Q 502 262 501.6618069368839 252.73191210394515 L 502.1729027906296 169.01169670399588 Q 502 160 508.68506467891467 159.17155168172394" fill="none" stroke="#7048e8" stroke-width="2" stroke-linecap="round"/><path d="M 512.1786571693079 160.6594634536136 L 661.7276403692238 160.0773337005566 Q 670 160 668.3324184618203 166.78866828293886 L 669.2875764734488 254.38855836121184 Q 670 262 660.8125048234249 260.76895649158683 L 508.11236957843977 262.5768530119884 Q 502 262 500.80734384876905 255.78384805722698 L 503.58239576111646 166.11177233951008 Q 502 160 508.8472203912236 160.74350222450363" fill="none" stroke="#7048e8" stroke-width="2" stroke-linecap="round"/><text x="516" y="188.0" font-size="14.5" fill="#1e1e1e" font-family="'Segoe Print','Comic Sans MS','Chalkboard SE','Excalifont',cursive">P5 egress</text><text x="516" y="207.575" font-size="14.5" fill="#1e1e1e" font-family="'Segoe Print','Comic Sans MS','Chalkboard SE','Excalifont',cursive">adds 802.1Q:</text><text x="516" y="246.0" font-size="17" fill="#7048e8" font-family="'Segoe Print','Comic Sans MS','Chalkboard SE','Excalifont',cursive" font-weight="700">+ tag 30</text><path d="M 670.3821721343901 203.91626265855496 Q 806.0 199.71389445896352 940.3125896106312 201.87975251577188" fill="none" stroke="#7048e8" stroke-width="3" stroke-linecap="round"/><path d="M 673.3529867901732 209.63780362319227 Q 806.0 213.27695539432602 938.2264955826068 210.69662520258805" fill="none" stroke="#7048e8" stroke-width="3" stroke-linecap="round"/><path d="M 939.8471572460398 201.93404933607334 L 951.5977054927159 195.6452112609076" stroke="#7048e8" stroke-width="3" stroke-linecap="round" fill="none"/><path d="M 940.9683304227319 201.1968357423039 L 950.9447963580008 208.38012304446895" stroke="#7048e8" stroke-width="3" stroke-linecap="round" fill="none"/><text x="726" y="190.0" font-size="14.5" fill="#7048e8" font-family="'Segoe Print','Comic Sans MS','Chalkboard SE','Excalifont',cursive" font-weight="700">carries tag 30</text><path d="M 953.5913591599523 158.89408786924926 L 1116.6369191971396 159.77389961046578 Q 1126 160 1125.6562792152713 167.02559863653454 L 1124.8991483706811 255.86236863681447 Q 1126 262 1117.7497752782351 263.589936060952 L 952.2214313747793 260.0225886499095 Q 944 262 946.196842861016 255.4785213743518 L 946.0635835320529 169.87601472523576 Q 944 160 953.534261231423 158.53176888665723" fill="none" stroke="#7048e8" stroke-width="2" stroke-linecap="round"/><path d="M 951.9368209519831 158.7404881164764 L 1117.5645772872176 158.0579957598776 Q 1126 160 1125.4674817234984 170.1353589126308 L 1124.9668934559575 255.24991064857372 Q 1126 262 1117.8020368162922 261.6612329383567 L 954.0121976197826 264.1798598337679 Q 944 262 944.2453806229847 254.96099641130382 L 942.4811060312059 167.10551443217608 Q 944 160 954.0623212058644 160.34839327959153" fill="none" stroke="#7048e8" stroke-width="2" stroke-linecap="round"/><text x="958" y="186.0" font-size="14.5" fill="#1e1e1e" font-family="'Segoe Print','Comic Sans MS','Chalkboard SE','Excalifont',cursive">vmbr0 vlan-aware</text><text x="958" y="205.575" font-size="14.5" fill="#1e1e1e" font-family="'Segoe Print','Comic Sans MS','Chalkboard SE','Excalifont',cursive">VID 30 -> net3</text><text x="958" y="246.0" font-size="13" fill="#7048e8" font-family="'Segoe Print','Comic Sans MS','Chalkboard SE','Excalifont',cursive" font-weight="700">ONLY, nowhere else</text><path d="M 1130.0843904027486 211.49595112075812 L 1165.114330545815 211.16835518891793" fill="none" stroke="#7048e8" stroke-width="2.2" stroke-linecap="round"/><path d="M 1166.005700765839 211.70543978409657 L 1173.0268642361996 207.2820454601557" stroke="#7048e8" stroke-width="2.2" stroke-linecap="round" fill="none"/><path d="M 1165.1602229304813 210.37164992196145 L 1173.9020689932206 215.98993745360136" stroke="#7048e8" stroke-width="2.2" stroke-linecap="round" fill="none"/><path d="M 1178.8348971380042 128.32750110136735 L 1521.7172641821696 128.88334753026996 Q 1528 130 1528.4158842755471 138.52527864546124 L 1527.644589627478 318.3681580728814 Q 1528 326 1520.1002439483407 327.9127075340403 L 1178.6987404774636 326.95124392347344 Q 1172 326 1170.8502181915096 317.5414577258815 L 1172.7554369810239 137.11998715111454 Q 1172 130 1179.1911796635961 131.10820376662338" fill="#d0bfff" fill-opacity="0.55" stroke="#7048e8" stroke-width="2" stroke-linecap="round"/><path d="M 1178.11918970377 129.81645629952178 L 1522.1931995397595 132.18282437056243 Q 1528 130 1526.1223471728383 136.73787897397497 L 1526.9668818249017 319.9063412631723 Q 1528 326 1521.6758023642203 327.668789066932 L 1179.4259191904512 324.4940860623718 Q 1172 326 1173.4684778004153 318.89557567038446 L 1172.4913821691941 140.14382547997863 Q 1172 130 1180.6774957979271 127.8344216714695" fill="none" stroke="#7048e8" stroke-width="2" stroke-linecap="round"/><text x="1188" y="158.0" font-size="14.5" fill="#1e1e1e" font-family="'Segoe Print','Comic Sans MS','Chalkboard SE','Excalifont',cursive">pfSense net3 - dCCTV 10.0.30.1/24</text><text x="1188" y="177.575" font-size="14.5" fill="#1e1e1e" font-family="'Segoe Print','Comic Sans MS','Chalkboard SE','Excalifont',cursive">tag stripped by the bridge</text><text x="1188" y="222.0" font-size="14" fill="#2f9e44" font-family="'Segoe Print','Comic Sans MS','Chalkboard SE','Excalifont',cursive" font-weight="700">ok in: Frigate :554 - HA :80 + :554</text><text x="1188" y="240.9" font-size="14" fill="#2f9e44" font-family="'Segoe Print','Comic Sans MS','Chalkboard SE','Excalifont',cursive" font-weight="700">ok out: NTP :123 only</text><text x="1188" y="286.0" font-size="14" fill="#e03131" font-family="'Segoe Print','Comic Sans MS','Chalkboard SE','Excalifont',cursive" font-weight="700">x everything else: DENY</text><text x="40" y="412.0" font-size="19" fill="#1971c2" font-family="'Segoe Print','Comic Sans MS','Chalkboard SE','Excalifont',cursive" font-weight="700">VLAN 1 - home LAN (the rest of the rack)</text><path d="M 49.39525819450803 429.1172665096799 L 204.71891034585073 431.93129201727925 Q 212 430 210.3908809033308 436.307886149844 L 210.27095830192144 546.2341840198932 Q 212 554 202.9983321341852 554.461251238933 L 48.95749362341071 552.6958281742408 Q 40 554 40.59064701909435 544.9615291671738 L 39.949540149457256 439.783480560749 Q 40 430 49.52285633849736 428.206113257936" fill="#a5d8ff" fill-opacity="0.55" stroke="#1971c2" stroke-width="2" stroke-linecap="round"/><path d="M 47.663733399280396 429.0173929854779 L 201.81560103198623 431.1929245812864 Q 212 430 212.60329886012607 436.95260315471114 L 213.0614159967309 546.2273938529561 Q 212 554 203.681822443515 551.8425466782767 L 46.131072984324575 555.6856681305206 Q 40 554 41.77728571486353 546.2005972725043 L 41.472218087498476 438.3630420925551 Q 40 430 46.45161265649692 428.36076028484143" fill="none" stroke="#1971c2" stroke-width="2" stroke-linecap="round"/><text x="54" y="456.0" font-size="13.5" fill="#1e1e1e" font-family="'Segoe Print','Comic Sans MS','Chalkboard SE','Excalifont',cursive">apartment uplink</text><text x="54" y="474.225" font-size="13.5" fill="#1e1e1e" font-family="'Segoe Print','Comic Sans MS','Chalkboard SE','Excalifont',cursive">4G router - .7</text><text x="54" y="492.45" font-size="13.5" fill="#1e1e1e" font-family="'Segoe Print','Comic Sans MS','Chalkboard SE','Excalifont',cursive">UPS - switch mgmt</text><text x="54" y="510.675" font-size="13.5" fill="#1e1e1e" font-family="'Segoe Print','Comic Sans MS','Chalkboard SE','Excalifont',cursive">all untagged</text><path d="M 215.61651669986026 492.79796297748516 L 256.59224460977606 492.7214051640018" fill="none" stroke="#1971c2" stroke-width="2.2" stroke-linecap="round"/><path d="M 256.797849273053 491.4201530766795 L 263.2110582587664 486.5660748969504" stroke="#1971c2" stroke-width="2.2" stroke-linecap="round" fill="none"/><path d="M 256.5602324837429 492.76826940290204 L 263.5247535599848 496.8808353666946" stroke="#1971c2" stroke-width="2.2" stroke-linecap="round" fill="none"/><path d="M 268.4800346886617 431.8914764690522 L 445.60426506336785 432.09530654489623 Q 452 430 453.36739556773773 439.67823130051863 L 449.909059992352 547.0408836757224 Q 452 554 443.2616160589643 555.8955898986127 L 271.3298346113234 555.6018817248512 Q 262 554 263.3672969929273 544.9739451222157 L 263.26444784019606 436.275620756173 Q 262 430 271.6375338447868 431.57781030588626" fill="none" stroke="#1971c2" stroke-width="2" stroke-linecap="round"/><path d="M 268.7787083572009 431.3929810646265 L 443.82533423258735 429.14283981628984 Q 452 430 453.29952019627257 436.8014201445942 L 449.9041235126864 544.6497710686419 Q 452 554 443.2443525852699 555.6031529449333 L 272.0543120578128 553.0281499679762 Q 262 554 262.62251964987354 545.5585848911843 L 264.11705862367234 438.15934922290637 Q 262 430 271.9326434174287 428.30750370814627" fill="none" stroke="#1971c2" stroke-width="2" stroke-linecap="round"/><text x="276" y="456.0" font-size="14.5" fill="#1e1e1e" font-family="'Segoe Print','Comic Sans MS','Chalkboard SE','Excalifont',cursive">P1 / P2 / P3</text><text x="276" y="475.575" font-size="14.5" fill="#1e1e1e" font-family="'Segoe Print','Comic Sans MS','Chalkboard SE','Excalifont',cursive">PVID 1 -> VLAN 1</text><text x="276" y="518.0" font-size="13.5" fill="#e03131" font-family="'Segoe Print','Comic Sans MS','Chalkboard SE','Excalifont',cursive" font-weight="700">x tag-30 arriving</text><text x="276" y="536.225" font-size="13.5" fill="#e03131" font-family="'Segoe Print','Comic Sans MS','Chalkboard SE','Excalifont',cursive" font-weight="700">here is DROPPED</text><path d="M 456.94080122204446 491.3571356323449 L 496.9250686315231 491.53093272504594" fill="none" stroke="#1971c2" stroke-width="2.2" stroke-linecap="round"/><path d="M 495.21680509442945 491.8691275171293 L 504.1690889016259 486.9878422819968" stroke="#1971c2" stroke-width="2.2" stroke-linecap="round" fill="none"/><path d="M 496.2124177066123 492.02284611933896 L 503.48238964701 496.7926884333864" stroke="#1971c2" stroke-width="2.2" stroke-linecap="round" fill="none"/><path d="M 508.92077902700976 430.9186552488703 L 659.8074416241619 431.87253072819595 Q 670 430 670.1691887872083 438.96549199623735 L 671.0645803424937 546.7507654195052 Q 670 554 661.4025744758376 552.1078847689557 L 510.7226458136096 553.2528801585875 Q 502 554 501.1812288382568 547.5312672298279 L 502.9669187572614 437.12141798012954 Q 502 430 509.16085251371805 429.59692879792453" fill="none" stroke="#1971c2" stroke-width="2" stroke-linecap="round"/><path d="M 509.570561703054 429.10088289111417 L 660.3600663158603 429.6499638686008 Q 670 430 671.9376001512128 438.78019895920005 L 671.7723444012233 546.5082656301861 Q 670 554 661.1241794480885 554.2109237377971 L 507.8017861346681 553.0624203542233 Q 502 554 501.69150785995527 546.351933037261 L 502.6807047442935 437.8459480370869 Q 502 430 509.74550311694117 428.740286164352" fill="none" stroke="#1971c2" stroke-width="2" stroke-linecap="round"/><text x="516" y="458.0" font-size="14.5" fill="#1e1e1e" font-family="'Segoe Print','Comic Sans MS','Chalkboard SE','Excalifont',cursive">P5 egress</text><text x="516" y="477.575" font-size="14.5" fill="#1e1e1e" font-family="'Segoe Print','Comic Sans MS','Chalkboard SE','Excalifont',cursive">native VLAN 1:</text><text x="516" y="520.0" font-size="14.5" fill="#1971c2" font-family="'Segoe Print','Comic Sans MS','Chalkboard SE','Excalifont',cursive" font-weight="700">no tag added</text><path d="M 673.7651956336443 493.3025089445578 Q 806.0 491.7854894872746 938.5466421432715 490.1731003615905" fill="none" stroke="#1971c2" stroke-width="3" stroke-linecap="round"/><path d="M 940.0309040198305 492.2658817115316 L 950.8099303046158 485.9353290953943" stroke="#1971c2" stroke-width="3" stroke-linecap="round" fill="none"/><path d="M 940.5022762750815 492.34559134111436 L 950.5888351257909 498.0997776991322" stroke="#1971c2" stroke-width="3" stroke-linecap="round" fill="none"/><text x="716" y="478.0" font-size="14.5" fill="#1971c2" font-family="'Segoe Print','Comic Sans MS','Chalkboard SE','Excalifont',cursive" font-weight="700">plain untagged frames</text><path d="M 949.9074717059981 428.8773071939447 L 1117.8905999145627 431.5388458563488 Q 1126 430 1124.1204442084122 437.62354044839 L 1126.570967675246 544.6555150416547 Q 1126 554 1118.8639587021582 553.975259543646 L 950.8735315341452 554.6866552488918 Q 944 554 941.8243971998073 547.1042436971213 L 945.1882032297257 436.26898410487956 Q 944 430 951.670643253348 428.5739013995087" fill="none" stroke="#1971c2" stroke-width="2" stroke-linecap="round"/><path d="M 954.0150505860299 430.07901410195245 L 1116.0209608946188 428.8964724305039 Q 1126 430 1127.5326799283473 437.80843203206877 L 1127.326233047578 546.7373420233799 Q 1126 554 1120.1467267934925 554.4199902012655 L 953.9801742771499 555.7222740735659 Q 944 554 944.4956702201517 546.9648054296142 L 944.0210239252274 439.45450434677423 Q 944 430 952.2106365826877 431.74771565422634" fill="none" stroke="#1971c2" stroke-width="2" stroke-linecap="round"/><text x="958" y="456.0" font-size="13.5" fill="#1e1e1e" font-family="'Segoe Print','Comic Sans MS','Chalkboard SE','Excalifont',cursive">vmbr0 untagged =</text><text x="958" y="474.225" font-size="13.5" fill="#1e1e1e" font-family="'Segoe Print','Comic Sans MS','Chalkboard SE','Excalifont',cursive">plain L2 switching:</text><text x="958" y="492.45" font-size="13.5" fill="#1e1e1e" font-family="'Segoe Print','Comic Sans MS','Chalkboard SE','Excalifont',cursive">host .127 + pfSense</text><text x="958" y="510.675" font-size="13.5" fill="#1e1e1e" font-family="'Segoe Print','Comic Sans MS','Chalkboard SE','Excalifont',cursive">WAN - no routing</text><path d="M 1130.4873108843192 491.9493488736461 L 1165.51838309693 491.4944794750193" fill="none" stroke="#1971c2" stroke-width="2.2" stroke-linecap="round"/><path d="M 1166.2753228735523 492.53162736859434 L 1173.7545984059766 487.6139845275704" stroke="#1971c2" stroke-width="2.2" stroke-linecap="round" fill="none"/><path d="M 1165.549194893835 491.1549667077295 L 1173.2834550820469 496.18294256055754" stroke="#1971c2" stroke-width="2.2" stroke-linecap="round" fill="none"/><path d="M 1179.2067221010425 420.1766697790812 L 1518.408845870671 418.81755051080404 Q 1528 420 1528.8533791741158 428.90824422345605 L 1526.0826069431412 575.593437226533 Q 1528 584 1520.1874890182173 583.6294066300538 L 1178.7100713138634 583.6486314782031 Q 1172 584 1173.7812893046969 576.3699494224986 L 1172.860301140591 429.5696209421373 Q 1172 420 1181.1686161349196 419.47367652728195" fill="#a5d8ff" fill-opacity="0.55" stroke="#1971c2" stroke-width="2" stroke-linecap="round"/><path d="M 1177.8259427677697 419.347738731756 L 1521.1152905502613 421.5551709825041 Q 1528 420 1529.9950934892684 427.6436936435712 L 1529.0890689435034 576.2029821628289 Q 1528 584 1520.4543113913414 582.7703702550248 L 1178.7654551923342 583.7176782946052 Q 1172 584 1169.9277092077655 575.2789699922729 L 1172.7882242941248 427.5789933442056 Q 1172 420 1178.5261968172954 419.85651665662215" fill="none" stroke="#1971c2" stroke-width="2" stroke-linecap="round"/><text x="1188" y="448.0" font-size="14" fill="#1e1e1e" font-family="'Segoe Print','Comic Sans MS','Chalkboard SE','Excalifont',cursive">pfSense net0 - WAN 192.168.1.2</text><text x="1188" y="466.9" font-size="14" fill="#1e1e1e" font-family="'Segoe Print','Comic Sans MS','Chalkboard SE','Excalifont',cursive">just a LAN client - home LAN</text><text x="1188" y="485.8" font-size="14" fill="#1e1e1e" font-family="'Segoe Print','Comic Sans MS','Chalkboard SE','Excalifont',cursive">never transits pfSense</text><text x="1188" y="542.0" font-size="13" fill="#1e1e1e" font-family="'Segoe Print','Comic Sans MS','Chalkboard SE','Excalifont',cursive" font-weight="700">gateway = AX6000 - pfSense NATs only 10.0.x</text><path d="M 46.36156230803711 610.5379306282858 L 661.9186523883826 609.5336891278947 Q 672 610 672.2833247253091 615.9192490038973 L 672.628098451241 692.3970777438145 Q 672 702 663.8314731538267 700.0212523873499 L 47.46805700242781 700.7313052505306 Q 40 702 39.23812154147776 695.1494107147337 L 39.4681553484822 619.1088432236411 Q 40 610 49.4604668546832 608.9099947398424" fill="none" stroke="#868e96" stroke-width="2" stroke-linecap="round" stroke-dasharray="9,7"/><path d="M 46.160387424151224 607.8852864630201 L 664.1734438108591 612.1995944454405 Q 672 610 671.3398255123689 618.6606340102994 L 673.2374254182879 694.6677204830731 Q 672 702 665.1186260978619 703.9782916239503 L 46.677187002395144 699.8896720762094 Q 40 702 38.470482321453076 692.3553722894466 L 40.74561891632761 618.2814661604921 Q 40 610 46.75904397998862 610.8776458734831" fill="none" stroke="#868e96" stroke-width="2" stroke-linecap="round" stroke-dasharray="9,7"/><text x="56" y="638.0" font-size="13.5" fill="#868e96" font-family="'Segoe Print','Comic Sans MS','Chalkboard SE','Excalifont',cursive">not on this cable: vmbr1 tag 10 -> dMgmt - tag 20 -> dK8s (Frigate)</text><text x="56" y="656.225" font-size="13.5" fill="#868e96" font-family="'Segoe Print','Comic Sans MS','Chalkboard SE','Excalifont',cursive">dormant fallback: eno2 -> vmbr2 (revert = one qm set)</text><text x="944" y="636.0" font-size="14.5" fill="#1e1e1e" font-family="'Segoe Print','Comic Sans MS','Chalkboard SE','Excalifont',cursive" font-weight="700">L2 drops (membership) happen in the switch,</text><text x="944" y="655.575" font-size="14.5" fill="#1e1e1e" font-family="'Segoe Print','Comic Sans MS','Chalkboard SE','Excalifont',cursive" font-weight="700">L3 allow/deny happens in pfSense</text><text x="944" y="694.0" font-size="12.5" fill="#868e96" font-family="'Segoe Print','Comic Sans MS','Chalkboard SE','Excalifont',cursive">ADR-0017 rev 3 - editable source: 0017-cctv-vlan-tagging.excalidraw</text></svg>